<svg width="50" height="55" viewBox="0 0 50 55" fill="none" xmlns="http://www.w3.org/2000/svg">
<g clip-path="url(#clip0_1745_3847)">
<path d="M17.8537 12.1747C10.8202 10.8937 5.25887 12.2347 3.04246 16.0733C1.38853 18.9377 1.86068 22.7361 4.18834 26.7961C4.23543 26.8783 4.29827 26.9505 4.37326 27.0084C4.44826 27.0664 4.53393 27.109 4.6254 27.1338C4.71687 27.1586 4.81232 27.1651 4.90632 27.153C5.00032 27.1409 5.09101 27.1104 5.1732 27.0633C5.3392 26.968 5.46059 26.8108 5.51069 26.6261C5.56079 26.4414 5.5355 26.2443 5.44038 26.0783C3.34342 22.4214 2.93475 19.1434 4.29181 16.7945C6.13276 13.6057 11.0927 12.4095 17.5948 13.5939C17.7123 13.6172 17.8338 13.6108 17.9482 13.5753C18.0627 13.5399 18.1665 13.4765 18.2503 13.3909C18.3341 13.3053 18.3953 13.2001 18.4284 13.085C18.4614 12.9698 18.4652 12.8482 18.4396 12.7312C18.4085 12.5905 18.3361 12.4623 18.2315 12.3632C18.127 12.264 17.9952 12.1984 17.853 12.1748L17.8537 12.1747ZM7.84592 31.7306C10.6897 34.8561 14.3846 37.7875 18.5984 40.2206C28.8009 46.1111 39.6626 47.6856 45.0154 44.0355C45.1695 43.9262 45.2746 43.7607 45.3081 43.5747C45.3415 43.3887 45.3006 43.197 45.1942 43.0408C45.0877 42.8846 44.9243 42.7765 44.7389 42.7396C44.5535 42.7027 44.3611 42.74 44.203 42.8436C39.4119 46.1104 29.0942 44.6147 19.3198 38.9713C15.2315 36.6107 11.6539 33.7724 8.91306 30.7601C8.81775 30.652 8.69226 30.5749 8.55274 30.5387C8.41322 30.5025 8.26606 30.5089 8.1302 30.557C8.01727 30.5971 7.91612 30.6648 7.83589 30.7538C7.75565 30.8428 7.69886 30.9504 7.67065 31.0669C7.64243 31.1834 7.64368 31.3051 7.67428 31.4209C7.70489 31.5368 7.76388 31.6432 7.84592 31.7306V31.7306Z" fill="#2DD0ED"/>
<path d="M43.3084 30.8533C47.9137 25.4128 49.5219 19.9406 47.3104 16.1097C45.6829 13.291 42.242 11.8027 37.6698 11.7434C37.4785 11.7409 37.2941 11.8145 37.157 11.9479C37.02 12.0813 36.9415 12.2637 36.9388 12.455C36.9367 12.5977 36.9771 12.7378 37.0548 12.8575C37.1325 12.9772 37.244 13.0711 37.3752 13.1273C37.4622 13.1647 37.5558 13.1847 37.6506 13.186C41.7629 13.2391 44.7275 14.5215 46.0611 16.8311C47.8978 20.0131 46.4642 24.8931 42.2075 29.9216C42.1441 29.9935 42.0957 30.0774 42.0652 30.1683C42.0346 30.2592 42.0225 30.3552 42.0295 30.4509C42.0366 30.5465 42.0626 30.6398 42.1062 30.7252C42.1497 30.8106 42.2099 30.8865 42.2831 30.9484C42.3564 31.0102 42.4412 31.0568 42.5326 31.0855C42.624 31.1142 42.7203 31.1244 42.8157 31.1156C42.9111 31.1067 43.0038 31.079 43.0884 31.0339C43.173 30.9889 43.2478 30.9275 43.3084 30.8533V30.8533ZM31.4728 12.415C27.3086 13.3074 22.8766 15.0516 18.6205 17.5089C8.08751 23.59 1.21678 32.5561 2.17139 39.0581C2.18326 39.1534 2.21406 39.2454 2.26196 39.3287C2.30986 39.4119 2.37392 39.4848 2.45036 39.543C2.5268 39.6011 2.61408 39.6434 2.7071 39.6674C2.80011 39.6914 2.89697 39.6965 2.992 39.6825C3.08703 39.6686 3.17832 39.6358 3.26049 39.586C3.34267 39.5363 3.41409 39.4707 3.47055 39.393C3.52701 39.3152 3.56738 39.227 3.5893 39.1335C3.61121 39.04 3.61422 38.9431 3.59815 38.8484C2.75126 33.0759 9.26363 24.5763 19.3411 18.7583C23.4702 16.3742 27.762 14.6858 31.7752 13.8251C31.9565 13.7795 32.1131 13.6653 32.2119 13.5065C32.3107 13.3478 32.344 13.1569 32.3048 12.974C32.2656 12.7912 32.1569 12.6307 32.0017 12.5264C31.8465 12.4222 31.6569 12.3822 31.4728 12.415Z" fill="#2DD0ED"/>
<path d="M14.4093 43.5656C16.8183 50.2886 20.7569 54.4287 25.1869 54.4287C28.4171 54.4287 31.4059 52.2269 33.7368 48.3497C33.7891 48.2685 33.8245 48.1776 33.841 48.0825C33.8575 47.9873 33.8548 47.8898 33.8329 47.7957C33.8056 47.6779 33.7491 47.5688 33.6685 47.4785C33.588 47.3882 33.486 47.3197 33.372 47.2792C33.258 47.2387 33.1356 47.2275 33.0162 47.2467C32.8967 47.2659 32.784 47.3148 32.6885 47.389C32.6121 47.4483 32.5485 47.5221 32.5013 47.6063C30.4063 51.0907 27.8331 52.9868 25.1869 52.9868C21.5078 52.9868 17.9938 49.294 15.7678 43.0791C15.7373 42.988 15.6889 42.904 15.6255 42.8319C15.5622 42.7597 15.4851 42.7009 15.3987 42.6589C15.3123 42.6171 15.2185 42.5928 15.1226 42.5875C15.0268 42.5825 14.9309 42.5966 14.8405 42.629C14.7502 42.6615 14.6672 42.7116 14.5965 42.7765C14.5258 42.8413 14.4687 42.9197 14.4285 43.0069C14.3884 43.0941 14.3661 43.1884 14.3628 43.2843C14.3597 43.3803 14.3757 43.4759 14.41 43.5656H14.4093ZM36.4046 42.25C37.6511 38.2674 38.32 33.6717 38.32 28.8828C38.32 16.9346 34.1386 6.63417 28.1817 3.98915C28.0076 3.91592 27.8118 3.91387 27.6362 3.98346C27.4606 4.05305 27.3194 4.18872 27.2427 4.36133C27.1661 4.53394 27.1602 4.72973 27.2263 4.90664C27.2924 5.08355 27.4253 5.22747 27.5964 5.30749C32.9091 7.66682 36.8781 17.442 36.8781 28.8828C36.8781 33.5281 36.2293 37.9789 35.0283 41.8194C34.9972 41.9104 34.9847 42.0068 34.9915 42.1028C34.9983 42.1988 35.0243 42.2924 35.0679 42.3782C35.1335 42.5074 35.2365 42.6139 35.3635 42.6837C35.4905 42.7535 35.6356 42.7835 35.7799 42.7696C35.9242 42.7558 36.0609 42.6988 36.1724 42.6061C36.2838 42.5134 36.3647 42.3893 36.4046 42.25V42.25ZM49.9878 41.5439C49.9907 41.0887 49.9036 40.6375 49.7314 40.2161C49.5593 39.7948 49.3054 39.4116 48.9846 39.0888C48.6638 38.7659 48.2823 38.5096 47.862 38.3348C47.4418 38.1599 46.9911 38.0699 46.5359 38.0699C46.0808 38.07 45.6301 38.16 45.2099 38.3348C44.7896 38.5097 44.4081 38.766 44.0873 39.0889C43.7665 39.4117 43.5127 39.7949 43.3405 40.2162C43.1684 40.6376 43.0813 41.0889 43.0842 41.544C43.09 42.4557 43.4563 43.328 44.103 43.9706C44.7497 44.6131 45.6244 44.9738 46.5361 44.9738C47.4478 44.9737 48.3224 44.6131 48.9691 43.9705C49.6158 43.3279 49.982 42.4555 49.9878 41.5439ZM48.5452 41.5439C48.5451 42.0767 48.3334 42.5878 47.9566 42.9645C47.5798 43.3413 47.0688 43.5531 46.5359 43.5532C46.1386 43.5532 45.7501 43.4353 45.4198 43.2145C45.0894 42.9937 44.8319 42.6799 44.6798 42.3128C44.5278 41.9457 44.488 41.5417 44.5655 41.152C44.6431 40.7623 44.8344 40.4043 45.1154 40.1233C45.3964 39.8423 45.7543 39.651 46.1441 39.5735C46.5338 39.4959 46.9378 39.5357 47.3049 39.6878C47.672 39.8398 47.9858 40.0973 48.2066 40.4277C48.4274 40.7581 48.5452 41.1465 48.5452 41.5439V41.5439ZM3.78801 44.9958C4.24133 44.9958 4.69023 44.9066 5.10906 44.7331C5.52789 44.5597 5.90844 44.3054 6.22899 43.9849C6.54954 43.6643 6.80381 43.2838 6.97726 42.8649C7.15072 42.4461 7.23996 41.9972 7.23991 41.5439C7.23994 41.0905 7.15068 40.6416 6.97721 40.2228C6.80374 39.804 6.54946 39.4234 6.2289 39.1029C5.90834 38.7823 5.52778 38.5281 5.10894 38.3546C4.6901 38.1812 4.2412 38.0919 3.78787 38.092C3.33456 38.0919 2.88568 38.1812 2.46688 38.3547C2.04807 38.5282 1.66754 38.7824 1.34701 39.103C1.02648 39.4235 0.772229 39.8041 0.598777 40.2229C0.425324 40.6417 0.336068 41.0906 0.336105 41.5439C0.336068 41.9972 0.425329 42.4461 0.59879 42.8649C0.772251 43.2837 1.02651 43.6643 1.34706 43.9848C1.66761 44.3054 2.04816 44.5596 2.46698 44.7331C2.8858 44.9066 3.33469 44.9958 3.78801 44.9958V44.9958ZM3.78801 43.5532C3.25499 43.5532 2.74381 43.3414 2.36691 42.9645C1.99001 42.5876 1.77827 42.0765 1.77827 41.5434C1.77827 41.0104 1.99001 40.4992 2.36691 40.1223C2.74381 39.7454 3.25499 39.5337 3.78801 39.5337C4.32102 39.5337 4.8322 39.7454 5.2091 40.1223C5.586 40.4992 5.79774 41.0104 5.79774 41.5434C5.79774 42.0765 5.586 42.5876 5.2091 42.9645C4.8322 43.3414 4.32102 43.5532 3.78801 43.5532V43.5532Z" fill="#2DD0ED"/>
<path d="M25.1869 7.51017C25.8697 7.51023 26.5371 7.30779 27.1048 6.92846C27.6724 6.54913 28.1148 6.00996 28.376 5.37915C28.5931 4.8547 28.6776 4.28481 28.6219 3.71993C28.5662 3.15506 28.372 2.61263 28.0567 2.14068C27.7413 1.66873 27.3145 1.28181 26.8139 1.01419C26.3134 0.746571 25.7545 0.606501 25.1869 0.606384C24.5042 0.606268 23.8367 0.808644 23.269 1.18791C22.7012 1.56718 22.2587 2.1063 21.9975 2.73709C21.7362 3.36787 21.6678 4.06197 21.8011 4.7316C21.9343 5.40123 22.2632 6.0163 22.746 6.49901C23.0666 6.81956 23.4471 7.07382 23.8659 7.24729C24.2847 7.42076 24.7336 7.51004 25.1869 7.51003V7.51017ZM25.1869 6.06744C24.7895 6.06739 24.4011 5.94953 24.0707 5.72877C23.7402 5.50801 23.4827 5.19424 23.3306 4.82714C23.2295 4.58338 23.1774 4.32209 23.1774 4.05821C23.1774 3.79432 23.2295 3.53303 23.3306 3.28927C23.4315 3.04549 23.5795 2.82398 23.766 2.63741C23.9526 2.45083 24.1741 2.30285 24.4179 2.20192C24.6924 2.08822 24.9888 2.03681 25.2855 2.05139C25.5823 2.06598 25.8722 2.1462 26.1342 2.28628C26.3963 2.42635 26.624 2.6228 26.801 2.86147C26.978 3.10014 27.0999 3.37509 27.1579 3.66653C27.2158 3.95796 27.2085 4.25862 27.1363 4.54686C27.0641 4.8351 26.9288 5.10374 26.7403 5.33343C26.5518 5.56312 26.3147 5.74816 26.0461 5.8752C25.7775 6.00225 25.4841 6.06814 25.1869 6.06815V6.06744ZM25.7142 31.3247C25.0666 31.4644 24.3901 31.3413 23.8332 30.9824C23.4179 30.7148 23.0913 30.3299 22.8947 29.8766C22.6981 29.4233 22.6404 28.9219 22.7289 28.4357C22.8173 27.9496 23.048 27.5006 23.3916 27.1456C23.7353 26.7906 24.1765 26.5454 24.6595 26.4412C25.3026 26.3127 25.9705 26.4422 26.5189 26.8018C27.0674 27.1614 27.4525 27.7223 27.591 28.3633C27.7294 29.0044 27.6101 29.6741 27.259 30.228C26.9079 30.7819 26.353 31.1756 25.7142 31.324V31.3247Z" fill="#2DD0ED"/>
</g>
<defs>
<clipPath id="clip0_1745_3847">
<rect width="50" height="54.1126" fill="white" transform="translate(0 0.436218)"/>
</clipPath>
</defs>
</svg>
