<svg width="50" height="53" viewBox="0 0 50 53" fill="none" xmlns="http://www.w3.org/2000/svg">
<g clip-path="url(#clip0_1745_3843)">
<path d="M49.8061 31.5848C49.5063 30.6768 48.721 30.0444 47.7054 29.8926C47.2265 29.8211 46.678 29.8516 46.029 29.9854C44.8978 30.2188 44.0585 30.3077 43.446 30.3248C45.7579 26.4215 47.6378 21.9704 48.72 17.7803C50.47 11.0052 49.5349 7.91864 48.4421 6.52255C45.5501 2.82724 41.3308 0.842089 36.2406 0.781347C33.5251 0.748144 31.1413 1.28428 29.8978 1.66982C28.74 1.46553 27.4951 1.35146 26.1888 1.33037C23.7402 1.29131 21.5767 1.8251 19.7281 2.92216C18.7047 2.57607 17.0621 2.08818 15.1652 1.77685C10.7039 1.04443 7.10819 1.61513 4.47812 3.47314C1.29336 5.72274 -0.183004 9.63133 0.0900418 15.0903C0.17676 16.8235 1.14629 22.0969 2.67285 27.0981C3.55019 29.9727 4.48574 32.3598 5.45351 34.1938C6.82597 36.7944 8.29452 38.3258 9.94315 38.8758C10.8672 39.1836 12.5461 39.3992 14.3119 37.9285C14.5357 38.1996 14.8343 38.469 15.2306 38.7192C15.734 39.0366 16.3494 39.2959 16.964 39.4496C19.1791 40.0033 21.2539 39.8649 23.024 39.0887C23.0349 39.4035 23.0433 39.7043 23.0503 39.9641C23.0621 40.3854 23.0738 40.7985 23.0892 41.1848C23.1941 43.7969 23.3718 45.8279 23.8984 47.249C23.9273 47.3272 23.9662 47.4463 24.0072 47.5727C24.2699 48.377 24.7091 49.7234 25.8267 50.7779C26.9839 51.8703 28.3837 52.2053 29.6658 52.2053C30.3087 52.2053 30.9222 52.1209 31.4603 52.0057C33.3783 51.5945 35.5566 50.9684 37.1323 48.7246C38.6222 46.6035 39.3464 43.4088 39.4775 38.375C39.4945 38.2326 39.5101 38.0967 39.5251 37.9672L39.5564 37.7012L39.9073 37.7321L39.9978 37.7381C41.9513 37.8272 44.3399 37.4129 45.8069 36.7315C46.9661 36.1936 50.6808 34.2325 49.8061 31.5848" fill="black"/>
<path d="M46.466 32.0997C40.6574 33.2979 40.258 31.3313 40.258 31.3313C46.3908 22.2311 48.9547 10.6798 46.7424 7.85262C40.7064 0.140702 30.2582 3.78797 30.0838 3.8825L30.0277 3.89266C28.8801 3.65438 27.5959 3.51258 26.1523 3.48895C23.5242 3.44598 21.5305 4.17801 20.0176 5.32527C20.0176 5.32527 1.37891 -2.35324 2.2459 14.9823C2.43028 18.6702 7.53184 42.8872 13.6166 35.5726C15.8406 32.8978 17.9897 30.6362 17.9897 30.6362C19.0568 31.3452 20.3346 31.7069 21.674 31.577L21.7781 31.4888C21.7457 31.8208 21.7606 32.1456 21.8197 32.5302C20.2522 34.2815 20.7129 34.589 17.5793 35.2341C14.4084 35.8876 16.2711 37.0509 17.4873 37.3552C18.9617 37.7237 22.3727 38.246 24.6773 35.0196L24.5856 35.3878C25.1996 35.8798 25.6309 38.5876 25.5586 41.0425C25.4863 43.4972 25.4381 45.1825 25.9219 46.4989C26.4061 47.8153 26.8883 50.7772 31.0078 49.8946C34.4498 49.1569 36.2336 47.2454 36.4818 44.0567C36.6578 41.7899 37.0564 42.1251 37.0814 40.0983L37.4012 39.139C37.7697 36.0661 37.4598 35.0747 39.5803 35.5358L40.0959 35.5811C41.6564 35.652 43.6994 35.33 44.8984 34.7728C47.4801 33.5747 49.0113 31.5741 46.4656 32.0997H46.466" fill="#336791"/>
<path d="M21.1086 16.6315C20.5852 16.5587 20.1111 16.6261 19.8713 16.8077C19.7365 16.9098 19.6947 17.0282 19.6834 17.1096C19.6533 17.3255 19.8045 17.5641 19.8975 17.6872C20.1604 18.0356 20.5443 18.2751 20.9244 18.3278C20.9795 18.3356 21.0344 18.3391 21.0889 18.3391C21.7227 18.3391 22.299 17.8456 22.3498 17.4813C22.4133 17.0251 21.751 16.721 21.1086 16.6317V16.6315ZM38.4492 16.646C38.3992 16.2884 37.7629 16.1864 37.159 16.2704C36.5559 16.3544 35.9711 16.6266 36.0199 16.985C36.059 17.2637 36.5623 17.7395 37.158 17.7395C37.2084 17.7395 37.2592 17.7362 37.3104 17.729C37.708 17.6739 37.9998 17.4214 38.1385 17.2759C38.3494 17.054 38.4717 16.8067 38.4492 16.646" fill="white"/>
<path d="M48.3989 31.9636C48.1775 31.2939 47.4646 31.0785 46.2802 31.323C42.7636 32.0488 41.5042 31.5461 41.0907 31.2416C43.8241 27.0775 46.0728 22.0439 47.2858 17.3476C47.8605 15.123 48.1778 13.057 48.2038 11.373C48.2325 9.52473 47.9177 8.16652 47.2685 7.33683C44.6509 3.99209 40.8091 2.19795 36.1587 2.14873C32.9616 2.11279 30.2604 2.93096 29.7368 3.16104C28.634 2.88682 27.4319 2.71846 26.1231 2.69697C23.7231 2.65811 21.6485 3.23272 19.9309 4.40401C19.1848 4.12627 17.2567 3.46436 14.8987 3.08448C10.8221 2.42822 7.58263 2.92549 5.27091 4.56319C2.51251 6.51749 1.23907 10.0109 1.48575 14.946C1.56875 16.6064 2.51485 21.7142 4.00782 26.6058C5.97306 33.0441 8.10939 36.6889 10.3571 37.4387C10.6201 37.5264 10.9235 37.5877 11.258 37.5877C12.078 37.5877 13.0832 37.2182 14.1291 35.9607C15.4048 34.4304 16.7245 32.9372 18.0864 31.483C18.97 31.9572 19.9407 32.222 20.9334 32.2486C20.9354 32.2746 20.9379 32.3006 20.9403 32.3263C20.7694 32.5301 20.602 32.7369 20.4383 32.9465C19.7504 33.8197 19.6073 34.0015 17.393 34.4574C16.7631 34.5875 15.0903 34.9322 15.0657 36.1049C15.0391 37.3861 17.0432 37.9242 17.2715 37.9812C18.0672 38.1805 18.8338 38.2787 19.5649 38.2787C21.3428 38.2787 22.9075 37.6943 24.1579 36.5637C24.1194 41.1312 24.3098 45.632 24.8583 47.0033C25.3075 48.126 26.4047 50.8696 29.8708 50.8694C30.3794 50.8694 30.9391 50.8102 31.555 50.6781C35.1723 49.9028 36.7432 48.3039 37.3509 44.7791C37.6761 42.8953 38.2341 38.3971 38.4966 35.9842C39.0505 36.157 39.7636 36.2361 40.5345 36.2359C42.1423 36.2359 43.9976 35.8943 45.161 35.3543C46.4681 34.7472 48.8267 33.2578 48.3989 31.9636V31.9636ZM39.7845 15.6589C39.7725 16.3712 39.6745 17.0179 39.5706 17.6929C39.4587 18.4189 39.3431 19.1695 39.314 20.0806C39.2852 20.9673 39.396 21.8892 39.503 22.7808C39.7194 24.5816 39.9415 26.4355 39.0819 28.2648C38.9391 28.0118 38.8119 27.7503 38.7011 27.4818C38.5942 27.2228 38.3622 26.8068 38.0409 26.231C36.7911 23.9896 33.8643 18.7408 35.3626 16.599C35.8089 15.9615 36.9415 15.306 39.7845 15.6589V15.6589ZM36.3384 3.59112C40.5052 3.68311 43.8013 5.2419 46.1349 8.22394C47.9247 10.5113 45.9538 20.9189 40.2481 29.8976C40.1908 29.8247 40.1331 29.7519 40.0751 29.6795L40.0028 29.5892C41.4772 27.1543 41.189 24.7451 40.9323 22.6091C40.8268 21.7326 40.7272 20.9046 40.7526 20.1269C40.7788 19.3027 40.8878 18.5956 40.9933 17.9121C41.1227 17.0697 41.2546 16.198 41.2183 15.1704C41.2454 15.0626 41.2563 14.9353 41.2421 14.7841C41.1493 13.7988 40.0243 10.8497 37.7313 8.18058C36.477 6.72062 34.6479 5.08682 32.1505 3.98487C33.2247 3.76221 34.6936 3.55459 36.3384 3.59112V3.59112ZM13.0223 35.0404C11.8699 36.426 11.0742 36.1603 10.8125 36.0732C9.10744 35.5045 7.12892 31.9006 5.38458 26.1857C3.8752 21.2408 2.99317 16.2683 2.92325 14.874C2.70294 10.4642 3.77188 7.39093 6.1006 5.73936C9.89045 3.05186 16.1213 4.66046 18.625 5.47628C18.5891 5.51183 18.5516 5.54503 18.5161 5.58116C14.4075 9.73039 14.5049 16.8195 14.5151 17.2529C14.5147 17.4201 14.5287 17.6568 14.5479 17.9824C14.6186 19.1747 14.7502 21.3939 14.3987 23.907C14.0721 26.2423 14.792 28.5281 16.3735 30.1783C16.5358 30.3473 16.7064 30.5082 16.8846 30.6603C16.1807 31.4142 14.6508 33.0814 13.0223 35.0404V35.0404ZM17.4127 29.1824C16.1381 27.8523 15.5592 26.0023 15.8243 24.1062C16.1953 21.4515 16.0584 19.1394 15.9848 17.8972C15.9745 17.7234 15.9653 17.571 15.96 17.4509C16.5602 16.9187 19.3416 15.4285 21.3252 15.8829C22.2303 16.0902 22.7819 16.7066 23.0112 17.7667C24.1979 23.2556 23.1682 25.5433 22.3409 27.3818C22.1704 27.7605 22.0092 28.1185 21.8717 28.4888L21.7651 28.7752C21.4952 29.499 21.244 30.172 21.0883 30.8111C19.7332 30.8072 18.4151 30.2283 17.4127 29.1822V29.1824ZM17.6207 36.5848C17.225 36.4859 16.8692 36.3142 16.6604 36.1719C16.8348 36.0898 17.1452 35.9781 17.6834 35.8672C20.2883 35.331 20.6907 34.9525 21.5692 33.8371C21.7706 33.5812 21.9989 33.2914 22.3151 32.9383L22.3155 32.9379C22.7864 32.4105 23.0018 32.5 23.3924 32.6621C23.709 32.7929 24.0174 33.1898 24.1424 33.6265C24.2016 33.8328 24.268 34.2242 24.0506 34.5289C22.2155 37.0984 19.5413 37.0654 17.6207 36.5848V36.5848ZM31.2534 49.2707C28.0667 49.9535 26.9383 48.3276 26.1948 46.4688C25.7149 45.2688 25.479 39.8574 25.6463 33.8814C25.6485 33.8019 25.6372 33.7252 25.6153 33.6529C25.5957 33.5102 25.566 33.3691 25.5262 33.2306C25.2774 32.3611 24.671 31.6338 23.9434 31.3322C23.6543 31.2125 23.1239 30.9927 22.4864 31.1558C22.6223 30.5957 22.8581 29.9631 23.1137 29.2781L23.2209 28.99C23.3417 28.6652 23.4932 28.3287 23.6534 27.9724C24.5192 26.049 25.7049 23.4144 24.418 17.4626C23.936 15.2333 22.3262 14.1447 19.886 14.3976C18.4231 14.549 17.0846 15.1392 16.417 15.4777C16.2735 15.5503 16.1422 15.6206 16.0196 15.689C16.2059 13.4429 16.9098 9.24523 19.543 6.58937C21.201 4.91749 23.409 4.0917 26.0993 4.13624C31.4001 4.22295 34.7993 6.94327 36.7177 9.21027C38.3708 11.1636 39.2659 13.1314 39.6231 14.1927C36.9366 13.9195 35.1095 14.4497 34.1833 15.774C32.1682 18.6544 35.2856 24.2451 36.7839 26.932C37.0587 27.4244 37.2958 27.85 37.3704 28.0308C37.8583 29.2133 38.4899 30.0027 38.9511 30.5789C39.0925 30.7554 39.2296 30.9267 39.3339 31.0763C38.5202 31.3109 37.0587 31.8529 37.1919 34.5621C37.0845 35.9215 36.3206 42.2859 35.9325 44.5346C35.4202 47.5053 34.327 48.6117 31.2534 49.2709V49.2707ZM44.555 34.0488C43.7229 34.4349 42.3306 34.7246 41.0079 34.7869C39.547 34.8553 38.8032 34.6232 38.6282 34.4804C38.5462 32.7922 39.1745 32.6158 39.8395 32.4291C39.944 32.3998 40.046 32.3711 40.1444 32.3367C40.2056 32.3865 40.2725 32.4359 40.346 32.4844C41.5202 33.2594 43.6146 33.3429 46.5714 32.7326L46.6038 32.7261C46.205 33.099 45.5226 33.5994 44.555 34.0488Z" fill="white"/>
</g>
<defs>
<clipPath id="clip0_1745_3843">
<rect width="50" height="51.5677" fill="white" transform="translate(0 0.708679)"/>
</clipPath>
</defs>
</svg>
