<svg width="50" height="65" viewBox="0 0 50 65" fill="none" xmlns="http://www.w3.org/2000/svg">
<g clip-path="url(#clip0_1505_8026)">
<path d="M22.4187 0.548065H32.8246V48.3995C27.4945 49.4111 23.5707 49.8091 19.3252 49.8091C6.61582 49.7958 0 44.099 0 33.158C0 22.6164 7.01758 15.7749 17.8922 15.7749C19.5797 15.7749 20.8652 15.9081 22.4187 16.3073V0.548065ZM22.7834 24.9307C21.5646 24.5313 20.5604 24.3983 19.2746 24.3983C14.0115 24.3983 10.9715 27.6192 10.9715 33.264C10.9715 38.7599 13.8777 41.7945 19.2078 41.7945C20.3594 41.7945 21.2969 41.7295 22.7834 41.5298V24.9307V24.9307Z" fill="#2BA977"/>
<path d="M49.8413 17.0596V41.0181C49.8413 49.269 49.2252 53.2368 47.4172 56.6576C45.7297 59.9464 43.5067 62.0203 38.9131 64.3108L29.2573 59.7456C33.8508 57.6037 36.0739 55.7112 37.4936 52.8229C38.9799 49.8694 39.4487 46.4486 39.4487 37.4509V17.0598H49.8413V17.0596ZM38.4 0.548065H48.8059V11.1563H38.4V0.548065Z" fill="#2BA977"/>
</g>
<defs>
<clipPath id="clip0_1505_8026">
<rect width="50" height="63.8889" fill="white" transform="translate(0 0.548065)"/>
</clipPath>
</defs>
</svg>
