<svg width="50" height="57" viewBox="0 0 50 57" fill="none" xmlns="http://www.w3.org/2000/svg">
<path d="M50 28.4976C50 25.1853 45.852 22.0463 39.4925 20.0997C40.96 13.6179 40.3078 8.4609 37.4338 6.80986C36.7713 6.42258 35.9967 6.23913 35.1508 6.23913V8.51186C35.6196 8.51186 35.9967 8.60359 36.3127 8.77684C37.6987 9.57179 38.3 12.5987 37.8312 16.4919C37.7191 17.4499 37.5357 18.4589 37.3115 19.4882C35.3139 18.999 33.1329 18.6219 30.8398 18.3773C29.4639 16.4919 28.0371 14.7797 26.6001 13.2815C29.9225 10.1935 33.0412 8.50167 35.161 8.50167V6.22894C32.3583 6.22894 28.6894 8.2265 24.9796 11.6916C21.2699 8.24688 17.6009 6.26971 14.7982 6.26971V8.54244C16.9079 8.54244 20.0367 10.2241 23.3592 13.2917C21.9323 14.7899 20.5055 16.4919 19.15 18.3773C16.8467 18.6219 14.6657 18.999 12.6682 19.4984C12.4338 18.4792 12.2605 17.4907 12.1382 16.5428C11.6592 12.6497 12.2503 9.62275 13.6262 8.81761C13.9319 8.63416 14.3294 8.55263 14.7982 8.55263V6.2799C13.9421 6.2799 13.1675 6.46335 12.4949 6.85063C9.63106 8.50167 8.98899 13.6484 10.4668 20.1099C4.1276 22.0667 0 25.1955 0 28.4976C0 31.8099 4.14798 34.9489 10.5075 36.8955C9.03995 43.3773 9.69221 48.5343 12.5662 50.1853C13.2287 50.5726 14.0033 50.756 14.8594 50.756C17.662 50.756 21.331 48.7585 25.0408 45.2933C28.7505 48.7381 32.4195 50.7153 35.2222 50.7153C36.0783 50.7153 36.8528 50.5318 37.5255 50.1445C40.3893 48.4935 41.0314 43.3468 39.5536 36.8853C45.8724 34.9387 50 31.7997 50 28.4976V28.4976ZM36.7305 21.6998C36.3534 23.0145 35.8846 24.37 35.3547 25.7255C34.9368 24.9101 34.4986 24.0948 34.0196 23.2795C33.5508 22.4642 33.0514 21.6692 32.552 20.8947C33.9992 21.1087 35.3954 21.3737 36.7305 21.6998ZM32.0628 32.5538C31.2678 33.9297 30.4525 35.2342 29.6066 36.447C28.0881 36.5795 26.5491 36.6509 25 36.6509C23.4611 36.6509 21.9221 36.5795 20.4138 36.4572C19.5679 35.2444 18.7424 33.9501 17.9474 32.5844C17.1728 31.2493 16.4696 29.8938 15.8276 28.5282C16.4594 27.1625 17.1729 25.7968 17.9372 24.4617C18.7322 23.0858 19.5475 21.7813 20.3934 20.5685C21.9119 20.436 23.4509 20.3647 25 20.3647C26.5389 20.3647 28.0779 20.436 29.5862 20.5583C30.4321 21.7711 31.2576 23.0655 32.0526 24.4311C32.8272 25.7662 33.5304 27.1217 34.1724 28.4874C33.5304 29.8531 32.8271 31.2187 32.0628 32.5538ZM35.3547 31.2289C35.905 32.5946 36.3738 33.9603 36.7611 35.2852C35.426 35.6113 34.0196 35.8865 32.5622 36.1005C33.0616 35.3158 33.5609 34.5106 34.0298 33.6851C34.4986 32.8698 34.9368 32.0443 35.3547 31.2289ZM25.0204 42.1034C24.0726 41.125 23.1247 40.0345 22.1871 38.8421C23.1044 38.8828 24.042 38.9134 24.9898 38.9134C25.9478 38.9134 26.8956 38.893 27.8231 38.8421C26.9058 40.0345 25.958 41.125 25.0204 42.1034ZM17.4378 36.1005C15.9906 35.8865 14.5944 35.6215 13.2593 35.2954C13.6364 33.9807 14.1052 32.6252 14.6351 31.2697C15.053 32.085 15.4912 32.9004 15.9702 33.7157C16.4492 34.531 16.9384 35.326 17.4378 36.1005ZM24.9694 14.8918C25.9172 15.8702 26.8651 16.9607 27.8027 18.1531C26.8854 18.1123 25.9478 18.0818 25 18.0818C24.042 18.0818 23.0942 18.1022 22.1667 18.1531C23.084 16.9607 24.0318 15.8702 24.9694 14.8918ZM17.4276 20.8947C16.9283 21.6794 16.4289 22.4845 15.96 23.3101C15.4912 24.1254 15.053 24.9407 14.6351 25.7561C14.0848 24.3904 13.616 23.0247 13.2287 21.6998C14.5638 21.3839 15.9702 21.1087 17.4276 20.8947V20.8947ZM8.20424 33.6545C4.59641 32.1156 2.26254 30.0977 2.26254 28.4976C2.26254 26.8975 4.59641 24.8694 8.20424 23.3406C9.08072 22.9636 10.0387 22.6272 11.0273 22.3113C11.6082 24.3088 12.3726 26.3879 13.3204 28.518C12.3828 30.6378 11.6286 32.7067 11.0579 34.6941C10.0489 34.3781 9.09091 34.0316 8.20424 33.6545ZM13.6873 48.2183C12.3013 47.4234 11.7 44.3965 12.1688 40.5033C12.2809 39.5453 12.4643 38.5363 12.6885 37.507C14.6861 37.9962 16.8671 38.3733 19.1602 38.6178C20.5361 40.5033 21.9629 42.2155 23.3999 43.7136C20.0775 46.8017 16.9588 48.4935 14.839 48.4935C14.3803 48.4833 13.9931 48.3916 13.6873 48.2183V48.2183ZM37.8618 40.4523C38.3408 44.3455 37.7497 47.3724 36.3738 48.1776C36.0681 48.361 35.6706 48.4426 35.2018 48.4426C33.0921 48.4426 29.9633 46.7609 26.6409 43.6933C28.0677 42.1951 29.4945 40.4931 30.85 38.6077C33.1533 38.3631 35.3343 37.986 37.3318 37.4866C37.5662 38.5159 37.7497 39.5045 37.8618 40.4523V40.4523ZM41.7856 33.6545C40.9091 34.0316 39.9511 34.368 38.9625 34.6839C38.3816 32.6863 37.6172 30.6073 36.6694 28.4772C37.607 26.3574 38.3612 24.2885 38.9319 22.3011C39.9409 22.617 40.8989 22.9636 41.7958 23.3406C45.4036 24.8796 47.7375 26.8975 47.7375 28.4976C47.7273 30.0977 45.3934 32.1258 41.7856 33.6545V33.6545Z" fill="#61DAFB"/>
<path d="M24.9898 33.1552C27.5621 33.1552 29.6474 31.0699 29.6474 28.4976C29.6474 25.9253 27.5621 23.8401 24.9898 23.8401C22.4175 23.8401 20.3322 25.9253 20.3322 28.4976C20.3322 31.0699 22.4175 33.1552 24.9898 33.1552Z" fill="#61DAFB"/>
</svg>
