<svg width="50" height="71" viewBox="0 0 50 71" fill="none" xmlns="http://www.w3.org/2000/svg">
<g clip-path="url(#clip0_1505_8024)">
<path d="M50 13.9759H0L4.6875 65.0854L24.9972 70.8772L45.3069 65.0854L50 13.9759Z" fill="#E6A329"/>
<path d="M24.9971 18.1399V66.546L41.4526 61.8583L45.456 18.1399H24.9971Z" fill="#F1BF22"/>
<path d="M38.0885 24.41H12.7872L11.0248 43.546L11.0614 43.4271H32.5564L31.8554 51.5231L24.9973 53.5075L18.0378 51.492L17.6211 46.5919H11.3036L12.2045 56.3836L24.9973 60.0353L37.7957 56.3836L39.5581 37.1655H16.7456L17.0384 30.7623H32.8661L33.1025 34.431H39.4764L38.0885 24.41Z" fill="white"/>
<path d="M25.0029 24.41H12.7872L11.0248 43.546L11.0614 43.4271H25.0029V37.1853H17.6352L17.928 30.7821H25.0029V24.41ZM17.6352 46.5919H11.3036L12.2045 56.3779L24.9973 60.0239V53.5132L18.0378 51.492L17.6352 46.5919Z" fill="#EBEBEB"/>
<path d="M20.1352 6.43748H15.6841V9.6504H23.3193V0.10788H20.1352V6.43748ZM34.3131 0.158833H26.5541V3.49914C27.5901 4.54086 28.1307 5.04191 29.6566 6.55071H26.5541V9.59662H34.3131V6.55637L31.2106 3.5048H34.3131V0.158833Z" fill="#231F20"/>
</g>
<defs>
<clipPath id="clip0_1505_8024">
<rect width="50" height="70.7692" fill="white" transform="translate(0 0.10788)"/>
</clipPath>
</defs>
</svg>
