<svg width="50" height="51" viewBox="0 0 50 51" fill="none" xmlns="http://www.w3.org/2000/svg">
<g clip-path="url(#clip0_1745_3846)">
<path fill-rule="evenodd" clip-rule="evenodd" d="M0 0.492493H50V50.4925H0V0.492493Z" fill="white"/>
<path fill-rule="evenodd" clip-rule="evenodd" d="M2.2059 33.7539H3.72207V27.7819L6.05999 32.99C6.33755 33.6146 6.70822 33.8346 7.4488 33.8346C8.18963 33.8346 8.56005 33.6146 8.8376 32.99L11.1755 27.7819V33.7539H12.68V27.7933C12.68 27.2148 12.4484 26.9365 11.9739 26.7861C10.8282 26.4273 10.0526 26.7399 9.70553 27.5155L7.41404 32.6427L5.19206 27.5155C4.8564 26.7399 4.0694 26.4273 2.92365 26.7861C2.43754 26.9365 2.20616 27.2146 2.20616 27.7933V33.7539H2.2059V33.7539ZM13.9415 28.8926H15.4459V32.1797C15.4345 32.3646 15.5038 32.7815 16.3372 32.7931C16.7538 32.8043 19.5893 32.7931 19.6124 32.7931V28.8809H21.1285C21.1399 28.8809 21.1285 34.2162 21.1285 34.2395C21.1399 35.5588 19.4967 35.8363 18.7444 35.8597H13.9762V34.8413C13.9762 34.8413 18.733 34.853 18.7444 34.8413C19.7166 34.7487 19.6009 34.2629 19.6009 34.1007V33.707H16.3951C14.902 33.6842 13.9529 33.0357 13.9415 32.2834C13.9415 32.2142 13.9762 28.9276 13.9415 28.8926V28.8926ZM46.4514 25.108C45.5259 25.085 44.8196 25.1659 44.2061 25.432C44.0328 25.5015 43.7664 25.5015 43.7319 25.7215C43.8246 25.8136 43.8474 25.9643 43.9169 26.0919C44.0673 26.3236 44.3107 26.6356 44.5304 26.7977C44.762 26.9832 45.0051 27.1682 45.2595 27.3303C45.7225 27.6078 46.2317 27.7583 46.6597 28.0366C46.9261 28.1982 47.1806 28.407 47.4353 28.592C47.5508 28.6846 47.6436 28.8236 47.7941 28.8812V28.8584C47.7131 28.7541 47.6898 28.6036 47.6203 28.4874L47.2732 28.1404C46.9378 27.7007 46.5093 27.3069 46.0577 26.9832C45.6989 26.7285 44.8889 26.3697 44.7384 25.9532C44.7267 25.9415 44.7151 25.9415 44.7151 25.9298C44.9698 25.8948 45.2709 25.8027 45.5023 25.7443C45.8961 25.6406 46.2546 25.6634 46.6595 25.5594C46.845 25.5013 47.0299 25.4551 47.2154 25.3973V25.293C47.0071 25.0847 46.8683 24.7955 46.6369 24.6103C46.0468 24.1011 45.3983 23.6033 44.7387 23.1867C44.3682 22.9437 43.9169 22.7932 43.5237 22.5966C43.396 22.5387 43.1644 22.504 43.0723 22.3883C42.8635 22.1336 42.7597 21.7979 42.5976 21.497C42.2581 20.8369 41.9416 20.1652 41.6487 19.4831C41.4521 19.0317 41.3128 18.5804 41.0703 18.1635C39.8664 16.196 38.5817 15.0041 36.5796 13.835C36.1516 13.592 35.6425 13.4879 35.0982 13.3606C34.809 13.3372 34.5198 13.3258 34.2303 13.3025C34.0565 13.233 33.8716 13.0132 33.6978 12.909C33.0381 12.4924 31.3368 11.578 30.8504 12.7816C30.5378 13.5339 31.3134 14.2747 31.591 14.6568C31.7881 14.9229 32.0306 15.2241 32.1699 15.5247C32.262 15.7213 32.2737 15.9182 32.3549 16.1265C32.5515 16.6474 32.7136 17.2144 32.9567 17.6888C33.0838 17.9319 33.2226 18.1866 33.3847 18.4066C33.4773 18.5339 33.6511 18.5918 33.6739 18.8001C33.5118 19.0315 33.5006 19.3788 33.408 19.668C33.0028 20.9759 33.1533 22.5847 33.7551 23.5566C33.9406 23.8458 34.3686 24.4824 34.9706 24.2396C35.4915 24.0196 35.3755 23.3714 35.526 22.7813C35.561 22.6539 35.5377 22.5613 35.6069 22.4687V22.4918C35.7574 22.8158 35.9195 23.1283 36.0816 23.4407C36.4287 24.008 37.0538 24.6097 37.5864 25.003C37.8522 25.2113 38.0722 25.5703 38.431 25.6857V25.6624H38.3964C38.3269 25.5586 38.2227 25.5122 38.1417 25.431C37.9334 25.2227 37.702 24.968 37.5283 24.7366C37.0541 24.0884 36.6258 23.3709 36.2323 22.63C36.0468 22.2713 35.8847 21.8778 35.7348 21.5191C35.6764 21.3803 35.6764 21.172 35.5493 21.0908C35.3755 21.3569 35.133 21.5769 34.9934 21.8895C34.7852 22.3873 34.7507 23.0005 34.6814 23.6256C34.6347 23.6487 34.6464 23.637 34.623 23.6604C34.2531 23.5678 34.1255 23.1857 33.9867 22.8617C33.6513 22.0399 33.5816 20.7206 33.8825 19.7715C33.9634 19.5285 34.3227 18.7645 34.1722 18.5332C34.1022 18.3132 33.8825 18.1744 33.7554 18.0009C33.5932 17.7926 33.4428 17.5148 33.3274 17.2717C33.0498 16.6235 32.9222 15.906 32.621 15.2581C32.4706 14.9455 32.2394 14.6329 32.0426 14.3668C31.8226 14.0542 31.5795 13.8345 31.4063 13.4641C31.3484 13.3367 31.2675 13.1284 31.3484 12.9894C31.3829 12.8968 31.4179 12.862 31.51 12.8273C31.6605 12.7116 32.089 12.8737 32.2506 12.9313C32.6675 13.1165 33.0262 13.2786 33.3849 13.5217C33.5587 13.6374 33.7325 13.8571 33.9408 13.9152H34.1725C34.5429 13.9961 34.9592 13.9382 35.3063 14.0425C35.9197 14.2275 36.4751 14.517 36.9731 14.8412C38.5007 15.8017 39.7393 17.1675 40.5956 18.7993C40.7344 19.0654 40.7922 19.3085 40.9082 19.5863C41.1515 20.1536 41.4635 20.7321 41.7066 21.276C41.9382 21.8316 42.1813 22.3873 42.5167 22.8383C42.7021 23.0814 43.3963 23.2088 43.7089 23.3359C43.9288 23.4285 44.2873 23.5325 44.4961 23.6601C44.901 23.8915 45.2829 24.181 45.665 24.4471C45.8497 24.5758 46.4281 24.865 46.4514 25.108V25.108Z" fill="#00678C"/>
<path fill-rule="evenodd" clip-rule="evenodd" d="M34.6464 15.0508C34.4866 15.0508 34.3273 15.0703 34.1722 15.1089V15.132H34.2067C34.2993 15.3172 34.4614 15.4445 34.5771 15.6064C34.6581 15.7916 34.7509 15.9768 34.8319 16.162L34.8664 16.1272C35.0285 16.0232 35.098 15.838 35.098 15.5488C35.0402 15.4793 35.0285 15.3984 34.9709 15.3172C34.8897 15.2012 34.7509 15.1434 34.6464 15.0508Z" fill="#00678C"/>
<path fill-rule="evenodd" clip-rule="evenodd" d="M22.2976 33.754H26.6376C27.1468 33.754 27.6443 33.6497 28.0378 33.4643C28.6858 33.1639 29.01 32.7585 29.01 32.2262V31.1152C29.01 30.6872 28.6396 30.2706 27.934 30.0042C27.5519 29.8537 27.0889 29.7842 26.6376 29.7842H24.8091C24.1956 29.7842 23.9064 29.5987 23.8369 29.1941C23.8252 29.1479 23.8252 29.1015 23.8252 29.0553V28.3723C23.8252 28.3261 23.8252 28.2914 23.8369 28.2452C23.9064 27.9326 24.0683 27.84 24.6008 27.7938C24.647 27.7938 24.7048 27.7822 24.7512 27.7822H29.0681V26.7755H24.8208C24.2073 26.7755 23.8947 26.8216 23.6055 26.9026C22.7028 27.1918 22.3093 27.6317 22.3093 28.4073V29.2869C22.3093 29.9699 23.0846 30.5484 24.3694 30.6872C24.5199 30.6872 24.6586 30.6988 24.8091 30.6988H26.3717C26.4295 30.6988 26.4871 30.6988 26.5333 30.7105C27.0197 30.7567 27.2163 30.8376 27.3667 31.0109C27.4477 31.1035 27.4827 31.1847 27.4827 31.289V32.1686C27.4827 32.2729 27.4132 32.4119 27.2627 32.5273C27.1351 32.6433 26.9151 32.7128 26.6259 32.7356C26.568 32.7356 26.5221 32.7473 26.4638 32.7473H22.2976V33.754ZM38.431 31.9943C38.431 33.036 39.1949 33.6145 40.7575 33.7304C40.8963 33.7421 41.0467 33.7538 41.1855 33.7538H45.1205V32.7465H41.1621C40.2709 32.7465 39.9355 32.5265 39.9355 31.9943V26.7749H38.4307V31.9943H38.431ZM29.9708 32.0521V28.4646C29.9708 27.5503 30.6071 26.9949 31.8802 26.8211C32.0078 26.7978 32.1583 26.7978 32.2854 26.7978H35.1553C35.2941 26.7978 35.4217 26.7978 35.5722 26.8211C36.8336 26.9949 37.4816 27.5503 37.4816 28.4646V32.0521C37.4816 32.7932 37.204 33.1865 36.5789 33.4412L38.072 34.7838H36.313L35.1092 33.7073L33.8936 33.7768H32.2851C32.0076 33.7768 31.7181 33.7423 31.3938 33.6497C30.4338 33.3948 29.9708 32.8856 29.9708 32.0521V32.0521ZM31.6027 31.96C31.6027 32.0179 31.6143 32.0638 31.626 32.1221C31.7186 32.5385 32.1118 32.7701 32.702 32.7701H34.0796L32.8182 31.6358H34.5771L35.6765 32.6197C35.8736 32.5154 36.0124 32.3533 36.0585 32.145C36.0702 32.0871 36.0702 32.0412 36.0702 31.9945V28.5458C36.0702 28.5108 36.0702 28.4649 36.0585 28.4182C35.9659 28.025 35.5727 27.8053 34.9937 27.8053H32.7022C32.0309 27.8053 31.6029 28.0945 31.6029 28.5458V31.96H31.6027V31.96ZM45.8152 33.754H46.0351V32.9206H46.336V32.7468H45.5143V32.9206H45.8152V33.754ZM47.5049 33.754H47.7015V32.7468H47.4006L47.1347 33.4414L46.8688 32.7468H46.5563V33.754H46.7646V32.9901L47.0538 33.754H47.2042L47.4935 32.9901H47.5051V33.754H47.5049Z" fill="#CE8B2C"/>
<path fill-rule="evenodd" clip-rule="evenodd" d="M2.54155 24.2632V20.467H3.7218C3.99961 20.467 4.19649 20.4903 4.33527 20.5365C4.5088 20.606 4.64758 20.7217 4.76327 20.9069C4.86755 21.0804 4.92539 21.3004 4.92539 21.5551C4.92539 21.9025 4.83305 22.18 4.65925 22.3886C4.48572 22.6083 4.18456 22.7126 3.75656 22.7126H2.95788V24.2635H2.54155V24.2632V24.2632ZM2.95814 22.2726H3.76823C4.02296 22.2726 4.20791 22.2148 4.32386 22.0991C4.43981 21.9834 4.49739 21.8096 4.49739 21.5782C4.49739 21.4278 4.46263 21.3004 4.40479 21.1961C4.34694 21.0804 4.27742 21.0112 4.19649 20.9764C4.11556 20.93 3.96485 20.9183 3.75682 20.9183H2.95814V22.2726V22.2726ZM5.33083 22.4114C5.33083 21.7748 5.46986 21.2771 5.75909 20.93C6.04832 20.5827 6.39565 20.4091 6.82365 20.4091C7.10146 20.4091 7.35619 20.4786 7.5759 20.6405C7.80754 20.791 7.98107 21.0223 8.11985 21.3118C8.24721 21.6127 8.31647 21.9601 8.31647 22.365C8.31647 22.9323 8.18911 23.3953 7.93438 23.7424C7.64515 24.1359 7.27474 24.3325 6.82339 24.3325C6.36063 24.3325 5.99021 24.1242 5.7124 23.7307C5.45819 23.3722 5.33083 22.9323 5.33083 22.4114V22.4114ZM5.75909 22.4231C5.75909 22.8858 5.86311 23.2563 6.07166 23.511C6.26828 23.7655 6.52301 23.9045 6.82391 23.9045C7.12481 23.9045 7.37953 23.7655 7.57616 23.511C7.78445 23.2448 7.88873 22.8628 7.88873 22.3538C7.88873 22.0296 7.83088 21.7403 7.72661 21.4856C7.64567 21.289 7.52972 21.1269 7.36786 21.0112C7.20936 20.8973 7.01884 20.8365 6.82365 20.8376C6.51108 20.8376 6.25661 20.965 6.05999 21.2195C5.85169 21.4856 5.75909 21.8791 5.75909 22.4231V22.4231ZM9.37014 24.2632L8.54837 20.467H8.96496L9.43965 22.9554C9.4975 23.2101 9.532 23.4762 9.57843 23.731L9.71721 23.0366L10.319 20.4672H10.8051L11.2448 22.3886C11.3534 22.8312 11.4383 23.2793 11.4993 23.731C11.534 23.4879 11.5802 23.2101 11.6497 22.9094L12.1358 20.4672H12.5641L11.7078 24.2635H11.3026L10.643 21.3699L10.5387 20.9302C10.5156 21.0924 10.4809 21.2428 10.4578 21.3699L9.78672 24.2632H9.37014ZM12.9462 24.2632V20.467H15.1915V20.9186H13.3513V22.076H15.0758V22.5274H13.3513V23.8236H15.261V24.2632H12.9462V24.2632ZM15.828 24.2632V20.467H17.2054C17.4949 20.467 17.7146 20.5017 17.842 20.5712C17.981 20.6408 18.0965 20.7681 18.1891 20.93C18.27 21.0921 18.3164 21.2887 18.3164 21.4973C18.3164 21.7865 18.2469 22.0179 18.0965 22.2031C17.946 22.3766 17.726 22.4926 17.4368 22.5388C17.5525 22.6083 17.6451 22.6778 17.703 22.7471C17.8303 22.8975 17.9346 23.0596 18.0269 23.2332L18.5712 24.2632H18.0503L17.6337 23.4762C17.4716 23.1639 17.3559 22.9554 17.275 22.8513C17.194 22.7473 17.1128 22.6778 17.0319 22.6314C16.9624 22.5966 16.8584 22.5735 16.7193 22.5735H16.2449V24.2632H15.828V24.2632ZM16.2446 22.1453H17.1242C17.3209 22.1453 17.4713 22.1222 17.5639 22.0757C17.6679 22.0293 17.7491 21.9484 17.807 21.8558C17.8648 21.7518 17.8879 21.6358 17.8879 21.5084C17.8879 21.3118 17.8417 21.1614 17.7258 21.0457C17.6101 20.9417 17.448 20.8836 17.2283 20.8836H16.2446V22.1453V22.1453ZM18.9761 24.2632V20.467H21.2214V20.9186H19.3927V22.076H21.1054V22.5274H19.3927V23.8236H21.3023V24.2632H18.9761ZM21.8577 24.2632V20.467H22.9339C23.2001 20.467 23.3969 20.4903 23.5357 20.5365C23.7209 20.5943 23.8714 20.71 24.0102 20.8721C24.1375 21.0343 24.2418 21.2309 24.3227 21.4739C24.3922 21.717 24.4267 22.0065 24.4267 22.3421C24.4267 22.7704 24.3689 23.1408 24.2415 23.4415C24.1142 23.7424 23.9523 23.9507 23.7554 24.078C23.5588 24.2054 23.2924 24.2632 22.9801 24.2632H21.8577V24.2632ZM22.2745 23.8236H22.9342C23.2003 23.8236 23.3972 23.7771 23.536 23.6848C23.675 23.6039 23.779 23.4648 23.86 23.2682C23.9526 23.0137 23.999 22.7012 23.999 22.3424C23.999 21.9603 23.9528 21.648 23.8486 21.428C23.7443 21.2081 23.6052 21.0576 23.4434 20.9881C23.3391 20.9419 23.1656 20.9186 22.9225 20.9186H22.2743V23.8236H22.2745V23.8236ZM26.3133 24.2632V20.467H27.4827C27.7255 20.467 27.9107 20.5017 28.0497 20.5827C28.1885 20.6522 28.3044 20.7679 28.3856 20.9183C28.4777 21.0804 28.5244 21.2426 28.5244 21.4392C28.5244 21.6127 28.4777 21.7634 28.4085 21.9022C28.3275 22.041 28.2235 22.1567 28.0847 22.2376C28.2571 22.3053 28.4059 22.422 28.5127 22.5733C28.6165 22.7354 28.6632 22.932 28.6632 23.1637C28.6632 23.3953 28.6165 23.5917 28.5244 23.7655C28.4318 23.939 28.3044 24.0664 28.1423 24.1476C27.9919 24.2285 27.7719 24.2632 27.4944 24.2632H26.3133V24.2632ZM26.7304 22.0643H27.4018C27.575 22.0643 27.7026 22.0529 27.7722 22.0296C27.8876 21.9948 27.9688 21.9256 28.0264 21.8446C28.0847 21.7637 28.1073 21.6477 28.1073 21.4975C28.1073 21.3585 28.0845 21.2428 28.0378 21.1502C27.9799 21.0576 27.9107 20.9998 27.8178 20.965C27.7369 20.9302 27.5745 20.9186 27.3548 20.9186H26.7302V22.0643H26.7304V22.0643ZM26.7304 23.8236H27.5055C27.6676 23.8236 27.7947 23.8005 27.8759 23.7771C27.9889 23.7333 28.0831 23.6515 28.1423 23.5458C28.2118 23.4531 28.2344 23.3144 28.2344 23.1639C28.2344 23.0135 28.2116 22.8978 28.1537 22.7935C28.0954 22.7009 28.015 22.62 27.9104 22.5735C27.8178 22.5274 27.6557 22.504 27.4474 22.504H26.7299V23.8236H26.7304V23.8236ZM30.0979 24.2632V22.6545L28.9062 20.467H29.4038L30.0167 21.6127C30.1341 21.824 30.2423 22.0403 30.341 22.261C30.4336 22.0527 30.5376 21.8327 30.6769 21.5896L31.2787 20.467H31.7529L30.5148 22.6545V24.2632H30.0979V24.2632Z" fill="#00678C"/>
</g>
<defs>
<clipPath id="clip0_1745_3846">
<rect width="50" height="50" fill="white" transform="translate(0 0.492493)"/>
</clipPath>
</defs>
</svg>
