<svg width="50" height="51" viewBox="0 0 50 51" fill="none" xmlns="http://www.w3.org/2000/svg">
<g clip-path="url(#clip0_1505_8038)">
<path d="M0 44.0454C0 47.6064 2.88652 50.4925 6.44707 50.4925H43.5527C47.1139 50.4925 50 47.606 50 44.0454V6.93976C50 3.37863 47.1135 0.492493 43.5529 0.492493H6.44727C2.88613 0.492493 0 3.37902 0 6.93956V44.0452V44.0454Z" fill="#563D7C"/>
<path d="M20.734 22.6093V15.5286H26.9666C27.5604 15.5286 28.1326 15.578 28.6838 15.6771C29.235 15.7759 29.7227 15.9525 30.1467 16.2069C30.5705 16.4614 30.9098 16.8148 31.1643 17.2669C31.4186 17.7193 31.5459 18.2987 31.5459 19.0052C31.5459 20.2773 31.1643 21.196 30.401 21.7612C29.6379 22.3267 28.6627 22.6093 27.4754 22.6093H20.734V22.6093ZM14.0771 10.3558V40.6292H28.7475C30.1043 40.6292 31.4258 40.4597 32.7119 40.1204C33.9981 39.7812 35.1428 39.2583 36.1463 38.5517C37.1496 37.845 37.9482 36.9333 38.5418 35.8169C39.1356 34.7003 39.4322 33.3788 39.4322 31.8525C39.4322 29.9585 38.9729 28.3403 38.0543 26.9978C37.1356 25.655 35.7434 24.7151 33.8777 24.178C35.2346 23.528 36.2594 22.6941 36.952 21.6765C37.6443 20.6589 37.9906 19.387 37.9906 17.8605C37.9906 16.4472 37.7574 15.2601 37.291 14.2989C36.8246 13.338 36.1674 12.5677 35.3193 11.9882C34.4715 11.4087 33.4539 10.9917 32.2666 10.7374C31.0795 10.4829 29.765 10.3558 28.3234 10.3558H14.0771V10.3558ZM20.734 35.4564V27.146H27.9842C29.4258 27.146 30.5848 27.478 31.4611 28.1425C32.3373 28.8067 32.7756 29.9161 32.7756 31.4708C32.7756 32.2624 32.6412 32.9124 32.3727 33.4212C32.1041 33.93 31.7438 34.3329 31.2914 34.6296C30.8393 34.9265 30.3162 35.1384 29.7227 35.2657C29.1289 35.3927 28.5072 35.4564 27.857 35.4564H20.734V35.4564Z" fill="white"/>
</g>
<defs>
<clipPath id="clip0_1505_8038">
<rect width="50" height="50" fill="white" transform="translate(0 0.492493)"/>
</clipPath>
</defs>
</svg>
