<svg width="50" height="31" viewBox="0 0 50 31" fill="none" xmlns="http://www.w3.org/2000/svg">
<g clip-path="url(#clip0_1743_3801)">
<path d="M25 0.492523C18.3334 0.492523 14.1666 3.82592 12.5 10.4925C15 7.15912 17.9166 5.90912 21.25 6.74252C23.1518 7.21791 24.5111 8.5978 26.0158 10.1249C28.467 12.613 31.3037 15.4925 37.5 15.4925C44.1666 15.4925 48.3334 12.1591 50 5.49252C47.5 8.82592 44.5834 10.0759 41.25 9.24252C39.3482 8.76713 37.9889 7.38725 36.4842 5.8601C34.033 3.37202 31.1963 0.492523 25 0.492523ZM12.5 15.4925C5.8334 15.4925 1.6666 18.8259 0 25.4925C2.5 22.1591 5.4166 20.9091 8.75 21.7425C10.6518 22.2179 12.0111 23.5978 13.5158 25.1249C15.967 27.613 18.8037 30.4925 25 30.4925C31.6666 30.4925 35.8334 27.1591 37.5 20.4925C35 23.8259 32.0834 25.0759 28.75 24.2425C26.8482 23.7671 25.4889 22.3872 23.9842 20.8601C21.533 18.372 18.6963 15.4925 12.5 15.4925Z" fill="url(#paint0_linear_1743_3801)"/>
</g>
<defs>
<linearGradient id="paint0_linear_1743_3801" x1="-1.389" y1="10.0925" x2="41.7942" y2="34.9912" gradientUnits="userSpaceOnUse">
<stop stop-color="#2298BD"/>
<stop offset="1" stop-color="#0ED7B5"/>
</linearGradient>
<clipPath id="clip0_1743_3801">
<rect width="50" height="30.08" fill="white" transform="translate(0 0.452515)"/>
</clipPath>
</defs>
</svg>
