<svg width="50" height="51" viewBox="0 0 50 51" fill="none" xmlns="http://www.w3.org/2000/svg">
<g clip-path="url(#clip0_1505_8023)">
<path d="M25 0.779846C11.1872 0.779846 0 12.0067 0 25.8683C0 37.6588 8.0617 47.4443 18.9383 50.203C18.8128 49.8891 18.7511 49.4493 18.7511 49.0116V44.7455H15.6255C13.9383 44.7455 12.3745 43.9939 11.6872 42.6124C10.8745 41.1071 10.7489 38.7862 8.68723 37.3428C8.0617 36.841 8.5617 36.3392 9.24894 36.4012C10.5617 36.7769 11.6234 37.6566 12.6234 38.9719C13.6234 40.2893 14.0617 40.6032 15.9362 40.6032C16.8106 40.6032 18.1851 40.5413 19.4362 40.3513C20.1234 38.594 21.3106 37.0268 22.7489 36.2752C14.3745 35.2716 10.3745 31.1315 10.3745 25.4861C10.3745 23.0392 11.4362 20.7182 13.1872 18.7111C12.6255 16.766 11.8745 12.7518 13.4383 11.1846C17.1894 11.1846 19.4383 13.6315 20 14.2571C21.8745 13.6294 23.9383 13.2536 26.0617 13.2536C28.2489 13.2536 30.2489 13.6294 32.1234 14.2571C32.6851 13.6294 34.9362 11.1846 38.6851 11.1846C40.1851 12.6899 39.4979 16.766 38.8723 18.7111C40.6234 20.6563 41.6234 23.0392 41.6234 25.4861C41.6234 31.1315 37.6851 35.2716 29.3745 36.1492C31.6872 37.3406 33.3128 40.727 33.3128 43.2359V48.9496C33.3128 49.1375 33.2511 49.3254 33.2511 49.5133C43 46.1269 50 36.8453 50 25.8683C50 12.0067 38.8128 0.779846 25 0.779846Z" fill="black"/>
</g>
<defs>
<clipPath id="clip0_1505_8023">
<rect width="50" height="49.4253" fill="white" transform="translate(0 0.779846)"/>
</clipPath>
</defs>
</svg>
