<svg width="50" height="75" viewBox="0 0 50 75" fill="none" xmlns="http://www.w3.org/2000/svg">
<g clip-path="url(#clip0_1745_3845)">
<path d="M12.5025 74.9849C19.4011 74.9849 25 69.3861 25 62.4875V49.99H12.5025C5.60389 49.99 0.00500488 55.5889 0.00500488 62.4875C0.00500488 69.3861 5.60389 74.9849 12.5025 74.9849Z" fill="#0ACF83"/>
<path d="M0.00500488 37.4925C0.00500488 30.5939 5.60389 24.995 12.5025 24.995H25V49.9899H12.5025C5.60389 49.9899 0.00500488 44.3911 0.00500488 37.4925Z" fill="#A259FF"/>
<path d="M0.00500488 12.4975C0.00500488 5.59888 5.60389 0 12.5025 0H25V24.995H12.5025C5.60389 24.995 0.00500488 19.3961 0.00500488 12.4975Z" fill="#F24E1E"/>
<path d="M25 0H37.4975C44.3962 0 49.9951 5.59888 49.9951 12.4975C49.9951 19.3961 44.3962 24.995 37.4975 24.995H25V0Z" fill="#FF7262"/>
<path d="M49.9951 37.4925C49.9951 44.3911 44.3962 49.9899 37.4975 49.9899C30.5989 49.9899 25 44.3911 25 37.4925C25 30.5939 30.5989 24.995 37.4975 24.995C44.3962 24.995 49.9951 30.5939 49.9951 37.4925Z" fill="#1ABCFE"/>
</g>
<defs>
<clipPath id="clip0_1745_3845">
<rect width="50" height="74.985" fill="white"/>
</clipPath>
</defs>
</svg>
