<svg width="50" height="39" viewBox="0 0 50 39" fill="none" xmlns="http://www.w3.org/2000/svg">
<g clip-path="url(#clip0_1505_8030)">
<path d="M43.0272 22.2856C41.2791 22.2955 39.7654 22.7153 38.4959 23.3404C38.0272 22.4127 37.5584 21.602 37.4804 20.9967C37.3925 20.2935 37.2851 19.8637 37.3925 19.024C37.4998 18.1841 37.9881 16.9926 37.9881 16.895C37.9782 16.8071 37.8806 16.3774 36.8748 16.3676C35.8691 16.3579 34.9998 16.563 34.9022 16.8266C34.8045 17.0903 34.6092 17.6958 34.4822 18.3208C34.3065 19.2387 32.4705 22.4907 31.4256 24.1997C31.0838 23.5356 30.7908 22.9497 30.7321 22.4808C30.6444 21.7778 30.5368 21.348 30.6444 20.5083C30.7518 19.6683 31.2401 18.477 31.2401 18.3794C31.2303 18.2915 31.1326 17.8618 30.1269 17.852C29.1209 17.8423 28.2519 18.0473 28.1542 18.311C28.0566 18.5747 27.9491 19.1997 27.7343 19.8051C27.5291 20.4106 25.0877 25.8403 24.4529 27.2563C24.1307 27.979 23.8476 28.5551 23.6424 28.9458C23.4373 29.3364 23.6326 28.9751 23.6131 29.0141C23.4373 29.3462 23.3397 29.5317 23.3397 29.5317V29.5416C23.2029 29.7857 23.0565 30.02 22.988 30.02C22.9392 30.02 22.8415 29.3657 23.0075 28.4674C23.3689 26.5825 24.2478 23.6431 24.2381 23.5357C24.2381 23.4869 24.404 22.9692 23.6716 22.7056C22.9587 22.442 22.7049 22.8814 22.6462 22.8814C22.5876 22.8814 22.5388 23.0377 22.5388 23.0377C22.5388 23.0377 23.3298 19.7272 21.0251 19.7272C19.5798 19.7272 17.5876 21.2995 16.6013 22.735C15.9763 23.0768 14.6482 23.7994 13.2419 24.571C12.7048 24.8639 12.1482 25.1764 11.6208 25.4596L11.5135 25.3423C8.72052 22.3637 3.55451 20.2544 3.76935 16.2505C3.84748 14.7954 4.35529 10.9575 13.6913 6.30905C21.3378 2.50046 27.4609 3.54538 28.5252 5.8696C30.0389 9.18991 25.2537 15.3618 17.3046 16.2505C14.2773 16.5923 12.6854 15.4204 12.2851 14.9809C11.8652 14.5219 11.8066 14.5024 11.6503 14.5903C11.3964 14.727 11.5527 15.1372 11.6503 15.3813C11.8847 15.9966 12.8612 17.0903 14.5214 17.6372C15.9764 18.1157 19.5312 18.3794 23.828 16.7192C28.6425 14.854 32.4023 9.67819 31.2987 5.35202C30.1757 0.947725 22.871 -0.497588 15.9667 1.95358C11.8553 3.41843 7.40217 5.70358 4.19904 8.70163C0.390446 12.2563 -0.215023 15.3618 0.0388833 16.6508C0.927653 21.2505 7.26545 24.2485 9.80451 26.4653C9.67756 26.5336 9.56037 26.6019 9.45295 26.6606C8.18342 27.2855 3.34943 29.8149 2.13849 32.4906C0.771305 35.5179 2.35334 37.6958 3.40802 37.9887C6.66974 38.8969 10.0096 37.2661 11.8162 34.5805C13.613 31.895 13.3983 28.4087 12.5682 26.8169L12.5388 26.7583L13.5349 26.1723C14.1795 25.7915 14.8143 25.4399 15.3708 25.1371C15.0584 25.9867 14.8337 26.9926 14.7166 28.4574C14.5799 30.1762 15.283 32.4027 16.2108 33.2816C16.6209 33.6624 17.1092 33.6722 17.4119 33.6722C18.4862 33.6722 18.9744 32.7835 19.5115 31.7191C20.1756 30.4203 20.7615 28.9164 20.7615 28.9164C20.7615 28.9164 20.0291 32.9886 22.0311 32.9886C22.7635 32.9886 23.4959 32.0414 23.8279 31.5531V31.5629C23.8279 31.5629 23.8475 31.5336 23.8865 31.4652C23.9275 31.4046 23.9666 31.3428 24.0037 31.2798V31.2602C24.2967 30.7524 24.951 29.5903 25.9276 27.6665C27.1872 25.186 28.3983 22.0805 28.3983 22.0805C28.3983 22.0805 28.5154 22.8423 28.8768 24.0923C29.0915 24.8345 29.5603 25.645 29.9216 26.436C29.6286 26.8462 29.4528 27.0806 29.4528 27.0806L29.4626 27.0904C29.2283 27.4029 28.9646 27.735 28.6912 28.067C27.6951 29.2584 26.5037 30.6159 26.3475 31.0065C26.1619 31.4654 26.201 31.8072 26.5623 32.0807C26.826 32.276 27.2947 32.315 27.7928 32.276C28.6912 32.2174 29.3162 31.9928 29.6287 31.856C30.117 31.6802 30.6737 31.4166 31.2108 31.0259C32.1873 30.3034 32.783 29.278 32.7244 27.9108C32.6951 27.1589 32.451 26.4167 32.1483 25.7135C32.2362 25.5866 32.3241 25.4595 32.4119 25.3229C33.9549 23.067 35.1463 20.5866 35.1463 20.5866C35.1463 20.5866 35.2635 21.3483 35.6248 22.5983C35.8103 23.2331 36.1815 23.9265 36.5135 24.6101C35.0682 25.7918 34.16 27.159 33.8475 28.0574C33.2713 29.7176 33.7205 30.4695 34.5701 30.6453C34.9509 30.7234 35.4979 30.5476 35.9079 30.3718C36.4157 30.2058 37.031 29.9225 37.5975 29.5027C38.574 28.78 39.5115 27.7742 39.4627 26.4168C39.4334 25.7918 39.2674 25.1765 39.0428 24.5906C40.2733 24.0828 41.865 23.7898 43.8865 24.034C48.2322 24.5418 49.0916 27.2566 48.9257 28.3894C48.7597 29.5223 47.8515 30.1472 47.5487 30.3425C47.2459 30.5281 47.1483 30.5966 47.1776 30.7332C47.2166 30.9384 47.3533 30.9285 47.617 30.8895C47.9783 30.8308 49.9022 29.9618 49.9803 27.872C50.0975 25.1861 47.5487 22.2564 43.0272 22.2856V22.2856ZM9.51154 33.5844C8.07599 35.1567 6.05451 35.7524 5.19513 35.2446C4.2674 34.7075 4.62863 32.393 6.39631 30.7231C7.47052 29.7075 8.86701 28.77 9.78498 28.1938C9.99006 28.0669 10.3026 27.8814 10.6736 27.6567C10.7322 27.6177 10.7713 27.5981 10.7713 27.5981C10.8397 27.5591 10.9178 27.5102 10.9959 27.4614C11.6502 29.8442 11.0252 31.9341 9.51154 33.5844V33.5844ZM20.0096 26.4458C19.5115 27.6665 18.4569 30.8012 17.8221 30.6255C17.2751 30.479 16.9432 28.1059 17.7146 25.7622C18.1052 24.5804 18.9353 23.1743 19.4236 22.6273C20.2147 21.7484 21.0739 21.4554 21.2889 21.8168C21.5428 22.2856 20.3221 25.6841 20.0096 26.4458ZM28.6717 30.5864C28.4569 30.6939 28.2615 30.7719 28.1737 30.7134C28.1053 30.6744 28.2614 30.5279 28.2614 30.5279C28.2614 30.5279 29.3454 29.3658 29.7751 28.8287C30.0193 28.5163 30.3122 28.155 30.6247 27.7447V27.8619C30.6248 29.268 29.2772 30.2055 28.6717 30.5864ZM35.3513 29.063C35.195 28.9458 35.2147 28.5844 35.7419 27.4516C35.9471 27.0024 36.4157 26.2505 37.2263 25.5376C37.3239 25.8305 37.3826 26.1136 37.3728 26.3774C37.3631 28.1352 36.1131 28.7895 35.3513 29.063Z" fill="#CF649A"/>
</g>
<defs>
<clipPath id="clip0_1505_8030">
<rect width="50" height="37.5" fill="white" transform="translate(0 0.742493)"/>
</clipPath>
</defs>
</svg>
