<svg width="50" height="59" viewBox="0 0 50 59" fill="none" xmlns="http://www.w3.org/2000/svg">
<g clip-path="url(#clip0_1505_8033)">
<path d="M4.5511 52.0018L0 0.825836H50L45.4433 51.9933L24.9689 57.6836L4.5511 52.0018Z" fill="#1572B6"/>
<path d="M25 53.3352L41.5443 48.7349L45.4348 5.01013H25V53.3352Z" fill="#33A9DC"/>
<path d="M25 23.5504H33.2835L33.8538 17.124H25V10.8505H40.6973L40.5477 12.535L39.009 29.8323H25V23.5504Z" fill="white"/>
<path d="M25.0341 39.8513H25.0058L18.0352 37.963L17.5891 32.9578H11.3102L12.1882 42.8125L25.0115 46.3909H25.0482V39.8513H25.0341Z" fill="#EBEBEB"/>
<path d="M32.7527 29.5577L31.9989 37.9573L25.017 39.8456V46.3852L37.8487 42.8181L37.9419 41.7565L39.0316 29.5549H32.7527V29.5577Z" fill="white"/>
<path d="M25.0225 10.8505V17.1268H9.90675L9.77688 15.717L9.49174 12.535L9.3421 10.8505H25.0225ZM24.9999 23.5504V29.8267H18.1083L17.9869 28.4169L17.7018 25.2348L17.5522 23.5504H24.9971H24.9999Z" fill="#EBEBEB"/>
</g>
<defs>
<clipPath id="clip0_1505_8033">
<rect width="50" height="58" fill="white" transform="translate(0 0.492493)"/>
</clipPath>
</defs>
</svg>
