<svg width="50" height="15" viewBox="0 0 50 15" fill="none" xmlns="http://www.w3.org/2000/svg">
<g clip-path="url(#clip0_1745_3844)">
<path d="M14.2899 5.95239L14.29 5.95178L13.8906 7.36691L14.2899 5.95239ZM16.3436 9.02451L15.9036 9.02198L16.3436 9.02451ZM16.2304 11.138H16.2308L13.5946 11.1475L16.2304 11.138ZM16.7831 9.02703L16.343 9.02451L16.7831 9.02703ZM16.4615 10.9583L16.9206 9.20707L16.4615 10.9587V10.9583ZM26.1675 2.89331L25.3121 6.9147L26.1675 2.89331ZM23.9685 2.89331L23.3191 5.89743L23.9685 2.89301V2.89331V2.89331Z" fill="#6BA0AB"/>
<path d="M26.0209 2.71235H24.1917C24.0902 2.71235 23.9895 2.79378 23.9678 2.89299L23.3184 5.89733L22.669 8.90177C22.6474 9.00098 22.5468 9.08211 22.4454 9.08211H21.1507C19.8697 9.08211 20.0179 8.19597 20.2803 6.9824L20.2882 6.94572L20.317 6.79276C20.3187 6.78286 20.3207 6.77296 20.3223 6.76397L20.3808 6.45249L20.4435 6.11859C20.4626 6.01796 20.4915 5.87076 20.5103 5.77832L20.8056 4.33591L21.101 2.8934C21.1214 2.79398 21.0547 2.71225 20.9533 2.71225H19.0756C18.9741 2.71225 18.8736 2.79398 18.8528 2.8932L18.4491 4.80853L18.0455 6.72366C18.0451 6.72447 18.045 6.72578 18.0449 6.72659L18.0073 6.9046C17.5423 9.02765 17.6656 11.052 20.1928 11.1153C20.2341 11.1167 20.2662 11.117 20.2662 11.117H24.2331C24.3345 11.117 24.4351 11.0354 24.4563 10.936L25.3118 6.91491L26.1672 2.8934C26.1882 2.79378 26.1224 2.71245 26.0209 2.71235V2.71235ZM33.3182 9.10302C33.4199 9.10302 33.4863 9.18466 33.4659 9.28377L33.2882 10.1521L33.3182 9.10302ZM33.1109 11.0208L33.2884 10.152L33.1108 11.021L33.1109 11.0208ZM32.8881 11.2033L32.8889 11.2031C32.3508 11.2075 30.7331 11.2197 29.5172 11.2197C30.9969 11.2198 32.888 11.2033 32.8881 11.2033V11.2033ZM28.4259 7.98492C28.4243 7.88995 28.5327 7.72608 28.6343 7.72608L28.4054 7.72234C28.3028 8.7575 28.4259 7.98492 28.4259 7.98492V7.98492Z" fill="#6BA0AB"/>
<path d="M29.684 11.2196C29.6724 11.2196 29.6604 11.2196 29.6483 11.2198C29.6604 11.2196 29.6724 11.2196 29.684 11.2196ZM33.3184 9.10305C33.42 9.10305 33.4865 9.18468 33.4661 9.28379L33.2884 10.1522L33.2595 10.2937L33.3184 9.10305ZM30.5501 11.2173H30.5428H30.5501ZM30.101 11.2188H30.0746H30.101ZM29.964 11.2192C29.9492 11.2192 29.9351 11.2192 29.9208 11.2196C29.9351 11.2192 29.9492 11.2192 29.964 11.2192ZM29.8245 11.2196H29.7867H29.8245ZM30.0748 11.2188L29.964 11.219L30.0748 11.2188ZM32.8896 11.2033C32.4952 11.2063 31.5209 11.2138 30.5494 11.2178C31.5203 11.2139 32.4949 11.2063 32.8896 11.2033ZM33.1111 11.0211L33.2599 10.2938L33.111 11.0217L33.1111 11.0211ZM29.9211 11.2196H29.8245H29.9211ZM29.6482 11.2198H29.5177H29.6482ZM29.7863 11.2196H29.6834H29.7863ZM3.02888 8.00666L3.31297 6.74711L2.98816 8.187L2.67638 9.65366L2.94967 8.36805C2.97058 8.26843 3.00645 8.10577 3.02888 8.00666V8.00666ZM6.42967 2.69113H4.42088C4.31924 2.69113 4.21791 2.77226 4.19527 2.87117L4.00483 3.71195L3.81439 4.55303C3.79196 4.65194 3.85662 4.73306 3.95836 4.73306H5.98281C6.08424 4.73306 6.18517 4.65194 6.207 4.55272L6.39108 3.71195L6.57515 2.87178V2.87157C6.59667 2.77226 6.53141 2.69113 6.42967 2.69113V2.69113ZM5.99251 5.48796V5.48776L5.4033 8.21347L5.99251 5.48796V5.48796ZM0.156776 14.5195C0.156776 14.5195 1.16941 14.5325 1.81317 14.5325C1.32419 14.5325 0.516647 14.5234 0.155968 14.5193L0.156978 14.5195H0.156776V14.5195ZM3.59697 5.48756L3.31257 6.74711L3.59697 5.48756Z" fill="#6BA0AB"/>
<path d="M5.84721 5.30732H3.82246C3.72092 5.30732 3.61949 5.38845 3.59706 5.48766L3.31266 6.74731L3.02856 8.00695C3.00613 8.10596 2.97037 8.26882 2.94936 8.36804L2.67607 9.65365L2.40298 10.9397C2.38177 11.0386 2.33812 11.1988 2.30559 11.2954C2.30559 11.2954 1.92743 12.4209 1.29145 12.4079C1.26498 12.4076 1.23851 12.4071 1.21204 12.4065C0.903996 12.4005 0.661827 12.3961 0.661827 12.3961H0.661423C0.560089 12.3944 0.45815 12.474 0.434408 12.5722L0.224467 13.4548L0.0147276 14.3369C-0.00881243 14.4357 0.0548367 14.5167 0.155766 14.5186C0.516343 14.523 1.32398 14.5324 1.81297 14.5324C3.40136 14.5324 4.2386 13.6519 4.77538 11.1199L5.40358 8.21316L5.99279 5.48746C6.01421 5.38855 5.94854 5.30732 5.84721 5.30732V5.30732ZM34.6084 11.1167C34.5069 11.1167 34.4414 11.0352 34.4628 10.9358L35.9859 3.80167L34.6084 11.1167ZM36.7251 10.9356L37.3415 7.89047L36.7251 10.9356Z" fill="#6BA0AB"/>
<path d="M34.4845 11.0264C34.4721 10.9767 34.4793 10.8548 34.5009 10.7553L35.2237 7.36895L34.4623 10.9358C34.4408 11.0352 34.5065 11.1169 34.6076 11.1169H34.7926C34.6916 11.1169 34.4967 11.0762 34.4845 11.0264V11.0264ZM36.6047 11.0762C36.5494 11.0985 36.421 11.1167 36.3193 11.1167H36.5043C36.6058 11.1167 36.7055 11.0352 36.7253 10.9356L36.7619 10.7546C36.7421 10.8541 36.6602 11.0535 36.6047 11.0762V11.0762ZM37.0335 9.4131L37.3051 8.06919C37.305 8.07 37.3048 8.07131 37.3045 8.07182L37.0335 9.4131ZM43.0433 4.27955L43.1272 4.62618C43.1504 4.72539 43.0862 4.80592 42.9849 4.80622L43.0433 4.27955ZM36.7621 10.7547L37.0337 9.41319L36.7621 10.7547ZM42.9598 3.92453L43.0429 4.27965L42.9598 3.92453ZM37.3053 8.06929C37.3255 7.96988 37.3588 7.80873 37.38 7.70993L37.6704 6.34966L37.3413 7.89067L37.3053 8.06929ZM36.0103 3.68478C35.99 3.78076 35.9643 3.902 35.9466 3.98232L35.2243 7.36895L35.9858 3.80178L36.0103 3.68478Z" fill="#6BA0AB"/>
<path d="M43.1266 4.62618L43.0427 4.27955L42.9597 3.92443L42.9177 3.7447C42.7532 3.10579 42.2709 2.73702 41.2227 2.73702L39.5907 2.73521L38.0879 2.73349H36.3963C36.2947 2.73349 36.1942 2.81462 36.1733 2.91413L36.0986 3.26753L36.0106 3.68479L35.9861 3.80168L35.2246 7.36884L34.5019 10.7552C34.4803 10.8545 34.4731 10.9764 34.4854 11.0262C34.4976 11.0761 34.6925 11.1167 34.7946 11.1167H36.3203C36.4219 11.1167 36.5504 11.0982 36.6057 11.076C36.6611 11.0535 36.7427 10.8542 36.7632 10.7545L37.0348 9.41298L37.3063 8.07191C37.3064 8.0713 37.3065 8.07009 37.3068 8.06969L37.3429 7.89076L37.6719 6.35006L37.9624 4.98898C37.984 4.89007 38.084 4.80925 38.1853 4.80895L42.9861 4.80662C43.0857 4.80602 43.1498 4.7254 43.1266 4.62618V4.62618Z" fill="#6BA0AB"/>
<path d="M49.3065 1.49172C49.2048 1.49242 49.0387 1.49303 48.9371 1.49303H47.4004C47.2989 1.49303 47.1688 1.56173 47.1119 1.64559L43.7142 6.62326C43.6567 6.70732 43.5909 6.69479 43.5688 6.59588L43.3188 5.49919C43.2958 5.40008 43.1945 5.31916 43.0931 5.31916H40.9088C40.8071 5.31916 40.7468 5.39887 40.7747 5.49657L41.7534 8.92534C41.7809 9.02304 41.7833 9.18398 41.7582 9.28178L41.3312 10.9414C41.3058 11.0399 41.3684 11.1203 41.4699 11.1203H43.6288C43.7303 11.1203 43.8341 11.0398 43.8593 10.9414L44.2861 9.28178C44.3112 9.18337 44.3818 9.03638 44.4435 8.95535L49.9596 1.63467C50.0207 1.55355 49.9876 1.48747 49.8862 1.48818L49.3065 1.49172V1.49172ZM31.9531 5.78602L31.9529 5.7839C31.9402 5.89412 31.838 5.97505 31.7366 5.97505H28.9678C28.872 5.97505 28.8228 5.90988 28.8373 5.82967C28.8381 5.82734 28.8386 5.82532 28.8395 5.8233C28.8395 5.8233 28.8386 5.8235 28.8374 5.82421C28.8383 5.82098 28.8383 5.81805 28.8393 5.81492C28.8393 5.81492 28.845 5.79542 28.8519 5.76783C29.1164 5.06466 29.6552 4.60315 30.668 4.60315C31.808 4.60295 32.0306 5.15983 31.9531 5.78602ZM31.1406 2.58951C27.5859 2.58951 26.7437 4.74712 26.2712 6.92484C25.7983 9.14458 25.8393 11.2198 29.5176 11.2198H29.6481C29.6597 11.2196 29.6716 11.2196 29.6833 11.2196H29.9211C29.9357 11.2192 29.9493 11.2192 29.9641 11.2192L30.0753 11.219H30.1014C30.2467 11.2188 30.3947 11.218 30.5426 11.2175H30.55C31.5212 11.2137 32.4957 11.2065 32.8902 11.2032C32.991 11.2013 33.0901 11.1203 33.1109 11.0216L33.2598 10.2937L33.2888 10.1523L33.4664 9.284C33.4869 9.18469 33.4205 9.10306 33.3188 9.10306H30.0122C28.6968 9.10306 28.3062 8.75359 28.4501 7.72611H33.7363L33.7358 7.72672C33.7371 7.72672 33.7382 7.72611 33.7394 7.72611C33.8234 7.72419 33.9011 7.6667 33.9319 7.58931C33.9377 7.57456 33.9424 7.55901 33.9447 7.54304L33.9441 7.54365C34.7283 4.58345 34.503 2.58962 31.1406 2.58951V2.58951ZM14.3399 5.7747L14.2899 5.95181L14.2898 5.95242L13.8906 7.36695L13.4916 8.78127C13.4641 8.87897 13.3585 8.95909 13.2566 8.95909H11.1439C9.54135 8.95909 9.15118 7.7057 9.54135 5.85684C9.93143 3.96595 10.6965 2.79036 12.2737 2.67145C14.4292 2.50879 14.8604 4.02485 14.3399 5.7747V5.7747ZM15.7889 8.85018C15.7889 8.85018 16.7849 6.43171 17.0111 5.03456C17.3209 3.16458 16.3845 0.452515 12.7681 0.452515C9.17199 0.452515 7.61057 3.04183 7.01469 5.85664C6.41891 8.69186 7.19947 11.1781 10.7749 11.158L13.5955 11.1475L16.2318 11.1378C16.3333 11.137 16.4371 11.0564 16.463 10.9584L16.9222 9.20671C16.9478 9.10841 16.8856 9.02759 16.7842 9.02718L16.3441 9.02486L15.9041 9.02254C15.8179 9.02163 15.7684 8.96586 15.7789 8.8919C15.7807 8.87776 15.7843 8.86391 15.7896 8.85068H15.7889V8.85018V8.85018Z" fill="#6BA0AB"/>
<path d="M33.5898 7.23143C33.5898 7.29831 33.5355 7.35276 33.4685 7.35276C33.4016 7.35276 33.3474 7.29831 33.3474 7.23143C33.3474 7.16455 33.4016 7.1105 33.4685 7.1105C33.5355 7.1104 33.5898 7.16445 33.5898 7.23143Z" fill="#6BA0AB"/>
</g>
<defs>
<clipPath id="clip0_1745_3844">
<rect width="50" height="14.08" fill="white" transform="translate(0 0.452515)"/>
</clipPath>
</defs>
</svg>
