<svg width="50" height="57" viewBox="0 0 50 57" fill="none" xmlns="http://www.w3.org/2000/svg">
<g clip-path="url(#clip0_1505_7932)">
<path d="M45.8134 50.4721L50.0001 0.536804L5.72205e-05 0.637152L4.42707 50.4721L24.8113 56.2324L45.8134 50.4721Z" fill="#E34F26"/>
<path d="M24.8113 51.4099V5.29248L4.22097 5.35938L7.89274 46.6203L24.8113 51.4099Z" fill="#EF652A"/>
<path d="M9.88308 16.8136L9.30002 10.718H40.9746L39.2246 29.4062H17.3645L18.2218 37.377L25.2226 39.2186L32.3262 37.2093L32.7036 32.4536H38.9843L38.1262 42.1661L25.223 45.6826L12.2169 42.1661L10.467 23.2103H33.4246L34.0766 16.8136H9.88308Z" fill="white"/>
</g>
<defs>
<clipPath id="clip0_1505_7932">
<rect width="50" height="55.8824" fill="white" transform="matrix(-1 0 0 1 50 0.443451)"/>
</clipPath>
</defs>
</svg>
