<svg width="50" height="51" viewBox="0 0 50 51" fill="none" xmlns="http://www.w3.org/2000/svg">
<g clip-path="url(#clip0_1505_8025)">
<path d="M49.057 23.2408L27.2266 1.1716C25.9701 -0.0994378 23.9311 -0.0994378 22.673 1.1716L18.1398 5.75462L23.8904 11.5684C25.2268 11.1119 26.7592 11.4181 27.8244 12.4951C28.8947 13.5789 29.1955 15.1414 28.733 16.4968L34.275 22.0999C35.6158 21.6329 37.1629 21.935 38.2338 23.0194C39.7305 24.532 39.7305 26.9834 38.2338 28.4969C36.7367 30.0107 34.3119 30.0107 32.8141 28.4969C31.6883 27.3576 31.4102 25.6861 31.9801 24.284L26.8117 19.0588L26.8111 32.8092C27.1858 32.9965 27.528 33.2439 27.8244 33.5418C29.3211 35.0543 29.3211 37.506 27.8244 39.0207C26.3273 40.5336 23.9014 40.5336 22.4064 39.0207C20.9098 37.506 20.9098 35.0545 22.4064 33.542C22.7651 33.1792 23.1914 32.8919 23.6605 32.6967V18.8181C23.1907 18.6242 22.7642 18.3367 22.4064 17.9728C21.2725 16.8279 20.9998 15.1458 21.5809 13.7381L15.9121 8.00644L0.943359 23.1387C-0.314453 24.4109 -0.314453 26.4726 0.943359 27.7438L22.7742 49.8134C24.0311 51.0846 26.0697 51.0846 27.3281 49.8134L49.0568 27.8463C50.3143 26.5747 50.3143 24.5118 49.0568 23.2408" fill="#DE4C36"/>
</g>
<defs>
<clipPath id="clip0_1505_8025">
<rect width="50" height="50.5494" fill="white" transform="translate(0 0.217773)"/>
</clipPath>
</defs>
</svg>
